<mxfile host="app.diagrams.net" modified="2023-05-22T18:58:51.615Z" agent="Mozilla/5.0 (Macintosh; Intel Mac OS X 10_15_7) AppleWebKit/537.36 (KHTML, like Gecko) Chrome/113.0.0.0 Safari/537.36" etag="E5tA-RIIZXkjoV0BXmTd" version="21.3.2" type="google">
  <diagram id="C5RBs43oDa-KdzZeNtuy" name="Page-1">
    <mxGraphModel grid="1" page="1" gridSize="10" guides="0" tooltips="1" connect="1" arrows="1" fold="1" pageScale="1" pageWidth="827" pageHeight="1169" math="0" shadow="0">
      <root>
        <mxCell id="WIyWlLk6GJQsqaUBKTNV-0" />
        <mxCell id="WIyWlLk6GJQsqaUBKTNV-1" parent="WIyWlLk6GJQsqaUBKTNV-0" />
        <mxCell id="dinOEAFU-VS2GNhogRsH-0" style="rounded=0;orthogonalLoop=1;jettySize=auto;html=1;endArrow=none;endFill=0;" edge="1" parent="WIyWlLk6GJQsqaUBKTNV-1" source="dinOEAFU-VS2GNhogRsH-2" target="dinOEAFU-VS2GNhogRsH-10">
          <mxGeometry relative="1" as="geometry" />
        </mxCell>
        <mxCell id="dinOEAFU-VS2GNhogRsH-1" style="rounded=0;orthogonalLoop=1;jettySize=auto;html=1;entryX=0;entryY=0.5;entryDx=0;entryDy=0;endArrow=none;endFill=0;" edge="1" parent="WIyWlLk6GJQsqaUBKTNV-1" source="dinOEAFU-VS2GNhogRsH-2" target="dinOEAFU-VS2GNhogRsH-14">
          <mxGeometry relative="1" as="geometry" />
        </mxCell>
        <mxCell id="dinOEAFU-VS2GNhogRsH-2" value="User" style="shape=umlActor;verticalLabelPosition=bottom;verticalAlign=top;html=1;" vertex="1" parent="WIyWlLk6GJQsqaUBKTNV-1">
          <mxGeometry x="390" y="601" width="30" height="60" as="geometry" />
        </mxCell>
        <mxCell id="dinOEAFU-VS2GNhogRsH-3" value="Project management" style="shape=umlFrame;whiteSpace=wrap;html=1;pointerEvents=0;width=170;height=30;" vertex="1" parent="WIyWlLk6GJQsqaUBKTNV-1">
          <mxGeometry x="530" y="220" width="600" height="830" as="geometry" />
        </mxCell>
        <mxCell id="dinOEAFU-VS2GNhogRsH-4" style="edgeStyle=orthogonalEdgeStyle;rounded=0;orthogonalLoop=1;jettySize=auto;html=1;entryX=1;entryY=0.5;entryDx=0;entryDy=0;dashed=1;" edge="1" parent="WIyWlLk6GJQsqaUBKTNV-1" source="dinOEAFU-VS2GNhogRsH-5" target="dinOEAFU-VS2GNhogRsH-10">
          <mxGeometry relative="1" as="geometry">
            <Array as="points">
              <mxPoint x="670" y="278" />
              <mxPoint x="670" y="330" />
            </Array>
          </mxGeometry>
        </mxCell>
        <mxCell id="dinOEAFU-VS2GNhogRsH-5" value="Create a project" style="ellipse;whiteSpace=wrap;html=1;" vertex="1" parent="WIyWlLk6GJQsqaUBKTNV-1">
          <mxGeometry x="780" y="260" width="70" height="40" as="geometry" />
        </mxCell>
        <mxCell id="dinOEAFU-VS2GNhogRsH-6" style="edgeStyle=orthogonalEdgeStyle;rounded=0;orthogonalLoop=1;jettySize=auto;html=1;entryX=1;entryY=0.5;entryDx=0;entryDy=0;dashed=1;" edge="1" parent="WIyWlLk6GJQsqaUBKTNV-1" source="dinOEAFU-VS2GNhogRsH-9" target="dinOEAFU-VS2GNhogRsH-10">
          <mxGeometry relative="1" as="geometry">
            <Array as="points" />
          </mxGeometry>
        </mxCell>
        <mxCell id="dinOEAFU-VS2GNhogRsH-10" value="Project Creation" style="ellipse;whiteSpace=wrap;html=1;" vertex="1" parent="WIyWlLk6GJQsqaUBKTNV-1">
          <mxGeometry x="550" y="310" width="80" height="40" as="geometry" />
        </mxCell>
        <mxCell id="dinOEAFU-VS2GNhogRsH-11" value="&amp;lt;&amp;lt;extends&amp;gt;&amp;gt;" style="text;html=1;align=center;verticalAlign=middle;resizable=0;points=[];autosize=1;strokeColor=none;fillColor=none;" vertex="1" parent="WIyWlLk6GJQsqaUBKTNV-1">
          <mxGeometry x="670" y="255" width="90" height="30" as="geometry" />
        </mxCell>
        <mxCell id="dinOEAFU-VS2GNhogRsH-12" value="&amp;lt;&amp;lt;extends&amp;gt;&amp;gt;" style="text;html=1;align=center;verticalAlign=middle;resizable=0;points=[];autosize=1;strokeColor=none;fillColor=none;" vertex="1" parent="WIyWlLk6GJQsqaUBKTNV-1">
          <mxGeometry x="670" y="306" width="90" height="30" as="geometry" />
        </mxCell>
        <mxCell id="dinOEAFU-VS2GNhogRsH-14" value="Project Manipulation" style="ellipse;whiteSpace=wrap;html=1;" vertex="1" parent="WIyWlLk6GJQsqaUBKTNV-1">
          <mxGeometry x="540" y="472" width="80" height="40" as="geometry" />
        </mxCell>
        <mxCell id="dinOEAFU-VS2GNhogRsH-15" style="edgeStyle=orthogonalEdgeStyle;rounded=0;orthogonalLoop=1;jettySize=auto;html=1;entryX=1;entryY=0.5;entryDx=0;entryDy=0;dashed=1;" edge="1" parent="WIyWlLk6GJQsqaUBKTNV-1" source="dinOEAFU-VS2GNhogRsH-16" target="dinOEAFU-VS2GNhogRsH-14">
          <mxGeometry relative="1" as="geometry">
            <Array as="points">
              <mxPoint x="670" y="442" />
              <mxPoint x="670" y="492" />
            </Array>
          </mxGeometry>
        </mxCell>
        <mxCell id="dinOEAFU-VS2GNhogRsH-16" value="Rename a Project" style="ellipse;whiteSpace=wrap;html=1;" vertex="1" parent="WIyWlLk6GJQsqaUBKTNV-1">
          <mxGeometry x="780" y="422" width="80" height="40" as="geometry" />
        </mxCell>
        <mxCell id="dinOEAFU-VS2GNhogRsH-17" style="edgeStyle=orthogonalEdgeStyle;rounded=0;orthogonalLoop=1;jettySize=auto;html=1;entryX=1;entryY=0.5;entryDx=0;entryDy=0;dashed=1;" edge="1" parent="WIyWlLk6GJQsqaUBKTNV-1" source="dinOEAFU-VS2GNhogRsH-18" target="dinOEAFU-VS2GNhogRsH-14">
          <mxGeometry relative="1" as="geometry" />
        </mxCell>
        <mxCell id="dinOEAFU-VS2GNhogRsH-18" value="Edit Project settings" style="ellipse;whiteSpace=wrap;html=1;" vertex="1" parent="WIyWlLk6GJQsqaUBKTNV-1">
          <mxGeometry x="780" y="472" width="90" height="40" as="geometry" />
        </mxCell>
        <mxCell id="dinOEAFU-VS2GNhogRsH-19" style="edgeStyle=orthogonalEdgeStyle;rounded=0;orthogonalLoop=1;jettySize=auto;html=1;entryX=1;entryY=0.5;entryDx=0;entryDy=0;dashed=1;" edge="1" parent="WIyWlLk6GJQsqaUBKTNV-1" source="dinOEAFU-VS2GNhogRsH-20" target="dinOEAFU-VS2GNhogRsH-14">
          <mxGeometry relative="1" as="geometry">
            <Array as="points">
              <mxPoint x="670" y="541" />
              <mxPoint x="670" y="492" />
            </Array>
          </mxGeometry>
        </mxCell>
        <mxCell id="dinOEAFU-VS2GNhogRsH-20" value="Delete a Project" style="ellipse;whiteSpace=wrap;html=1;" vertex="1" parent="WIyWlLk6GJQsqaUBKTNV-1">
          <mxGeometry x="780" y="522" width="80" height="38" as="geometry" />
        </mxCell>
        <mxCell id="dinOEAFU-VS2GNhogRsH-21" value="&amp;lt;&amp;lt;extends&amp;gt;&amp;gt;" style="text;html=1;align=center;verticalAlign=middle;resizable=0;points=[];autosize=1;strokeColor=none;fillColor=none;" vertex="1" parent="WIyWlLk6GJQsqaUBKTNV-1">
          <mxGeometry x="665" y="417" width="90" height="30" as="geometry" />
        </mxCell>
        <mxCell id="dinOEAFU-VS2GNhogRsH-22" value="&amp;lt;&amp;lt;extends&amp;gt;&amp;gt;" style="text;html=1;align=center;verticalAlign=middle;resizable=0;points=[];autosize=1;strokeColor=none;fillColor=none;" vertex="1" parent="WIyWlLk6GJQsqaUBKTNV-1">
          <mxGeometry x="665" y="469" width="90" height="30" as="geometry" />
        </mxCell>
        <mxCell id="dinOEAFU-VS2GNhogRsH-23" value="&amp;lt;&amp;lt;extends&amp;gt;&amp;gt;" style="text;html=1;align=center;verticalAlign=middle;resizable=0;points=[];autosize=1;strokeColor=none;fillColor=none;" vertex="1" parent="WIyWlLk6GJQsqaUBKTNV-1">
          <mxGeometry x="664" y="518" width="90" height="30" as="geometry" />
        </mxCell>
        <mxCell id="dinOEAFU-VS2GNhogRsH-28" value="&amp;lt;&amp;lt;extends&amp;gt;&amp;gt;" style="text;html=1;align=center;verticalAlign=middle;resizable=0;points=[];autosize=1;strokeColor=none;fillColor=none;" vertex="1" parent="WIyWlLk6GJQsqaUBKTNV-1">
          <mxGeometry x="670" y="360" width="90" height="30" as="geometry" />
        </mxCell>
        <mxCell id="dinOEAFU-VS2GNhogRsH-30" style="edgeStyle=orthogonalEdgeStyle;rounded=0;orthogonalLoop=1;jettySize=auto;html=1;entryX=1;entryY=0.5;entryDx=0;entryDy=0;dashed=1;" edge="1" parent="WIyWlLk6GJQsqaUBKTNV-1" source="dinOEAFU-VS2GNhogRsH-31" target="dinOEAFU-VS2GNhogRsH-18">
          <mxGeometry relative="1" as="geometry">
            <Array as="points">
              <mxPoint x="890" y="462" />
              <mxPoint x="890" y="492" />
            </Array>
          </mxGeometry>
        </mxCell>
        <mxCell id="dinOEAFU-VS2GNhogRsH-31" value="Edit output format" style="ellipse;whiteSpace=wrap;html=1;" vertex="1" parent="WIyWlLk6GJQsqaUBKTNV-1">
          <mxGeometry x="997" y="442" width="113" height="40" as="geometry" />
        </mxCell>
        <mxCell id="dinOEAFU-VS2GNhogRsH-32" style="edgeStyle=orthogonalEdgeStyle;rounded=0;orthogonalLoop=1;jettySize=auto;html=1;entryX=1;entryY=0.5;entryDx=0;entryDy=0;dashed=1;" edge="1" parent="WIyWlLk6GJQsqaUBKTNV-1" source="dinOEAFU-VS2GNhogRsH-33" target="dinOEAFU-VS2GNhogRsH-18">
          <mxGeometry relative="1" as="geometry">
            <Array as="points">
              <mxPoint x="890" y="522" />
              <mxPoint x="890" y="492" />
            </Array>
          </mxGeometry>
        </mxCell>
        <mxCell id="dinOEAFU-VS2GNhogRsH-33" value="Edit user Preferences" style="ellipse;whiteSpace=wrap;html=1;" vertex="1" parent="WIyWlLk6GJQsqaUBKTNV-1">
          <mxGeometry x="997" y="502" width="113" height="40" as="geometry" />
        </mxCell>
        <mxCell id="dinOEAFU-VS2GNhogRsH-34" value="&amp;lt;&amp;lt;extends&amp;gt;&amp;gt;" style="text;html=1;align=center;verticalAlign=middle;resizable=0;points=[];autosize=1;strokeColor=none;fillColor=none;" vertex="1" parent="WIyWlLk6GJQsqaUBKTNV-1">
          <mxGeometry x="890" y="438" width="90" height="30" as="geometry" />
        </mxCell>
        <mxCell id="dinOEAFU-VS2GNhogRsH-35" value="&amp;lt;&amp;lt;extends&amp;gt;&amp;gt;" style="text;html=1;align=center;verticalAlign=middle;resizable=0;points=[];autosize=1;strokeColor=none;fillColor=none;" vertex="1" parent="WIyWlLk6GJQsqaUBKTNV-1">
          <mxGeometry x="890" y="497" width="90" height="30" as="geometry" />
        </mxCell>
        <mxCell id="dinOEAFU-VS2GNhogRsH-9" value="Import a project" style="ellipse;whiteSpace=wrap;html=1;" vertex="1" parent="WIyWlLk6GJQsqaUBKTNV-1">
          <mxGeometry x="780" y="310" width="70" height="40" as="geometry" />
        </mxCell>
        <mxCell id="dinOEAFU-VS2GNhogRsH-39" style="edgeStyle=orthogonalEdgeStyle;rounded=0;orthogonalLoop=1;jettySize=auto;html=1;entryX=1;entryY=0.5;entryDx=0;entryDy=0;dashed=1;" edge="1" parent="WIyWlLk6GJQsqaUBKTNV-1" source="dinOEAFU-VS2GNhogRsH-7" target="dinOEAFU-VS2GNhogRsH-10">
          <mxGeometry relative="1" as="geometry">
            <Array as="points">
              <mxPoint x="670" y="380" />
              <mxPoint x="670" y="330" />
            </Array>
          </mxGeometry>
        </mxCell>
        <mxCell id="dinOEAFU-VS2GNhogRsH-7" value="Copy a project" style="ellipse;whiteSpace=wrap;html=1;" vertex="1" parent="WIyWlLk6GJQsqaUBKTNV-1">
          <mxGeometry x="780" y="360" width="70" height="40" as="geometry" />
        </mxCell>
        <mxCell id="dinOEAFU-VS2GNhogRsH-46" style="rounded=0;orthogonalLoop=1;jettySize=auto;html=1;endArrow=none;endFill=0;" edge="1" parent="WIyWlLk6GJQsqaUBKTNV-1" source="dinOEAFU-VS2GNhogRsH-44" target="dinOEAFU-VS2GNhogRsH-2">
          <mxGeometry relative="1" as="geometry" />
        </mxCell>
        <mxCell id="dinOEAFU-VS2GNhogRsH-44" value="Project Output" style="ellipse;whiteSpace=wrap;html=1;" vertex="1" parent="WIyWlLk6GJQsqaUBKTNV-1">
          <mxGeometry x="550" y="640" width="90" height="40" as="geometry" />
        </mxCell>
        <mxCell id="dinOEAFU-VS2GNhogRsH-50" style="edgeStyle=orthogonalEdgeStyle;rounded=0;orthogonalLoop=1;jettySize=auto;html=1;entryX=1;entryY=0.5;entryDx=0;entryDy=0;dashed=1;exitX=0;exitY=0.5;exitDx=0;exitDy=0;" edge="1" parent="WIyWlLk6GJQsqaUBKTNV-1" source="dinOEAFU-VS2GNhogRsH-47" target="dinOEAFU-VS2GNhogRsH-44">
          <mxGeometry relative="1" as="geometry">
            <Array as="points">
              <mxPoint x="670" y="640" />
              <mxPoint x="670" y="660" />
            </Array>
          </mxGeometry>
        </mxCell>
        <mxCell id="dinOEAFU-VS2GNhogRsH-47" value="Export a Project" style="ellipse;whiteSpace=wrap;html=1;" vertex="1" parent="WIyWlLk6GJQsqaUBKTNV-1">
          <mxGeometry x="780" y="620" width="70" height="40" as="geometry" />
        </mxCell>
        <mxCell id="dinOEAFU-VS2GNhogRsH-53" style="edgeStyle=orthogonalEdgeStyle;rounded=0;orthogonalLoop=1;jettySize=auto;html=1;entryX=1;entryY=0.5;entryDx=0;entryDy=0;dashed=1;" edge="1" parent="WIyWlLk6GJQsqaUBKTNV-1" source="dinOEAFU-VS2GNhogRsH-49" target="dinOEAFU-VS2GNhogRsH-44">
          <mxGeometry relative="1" as="geometry">
            <Array as="points">
              <mxPoint x="670" y="680" />
              <mxPoint x="670" y="660" />
            </Array>
          </mxGeometry>
        </mxCell>
        <mxCell id="dinOEAFU-VS2GNhogRsH-49" value="Upload a project" style="ellipse;whiteSpace=wrap;html=1;" vertex="1" parent="WIyWlLk6GJQsqaUBKTNV-1">
          <mxGeometry x="780" y="665" width="70" height="38" as="geometry" />
        </mxCell>
        <mxCell id="dinOEAFU-VS2GNhogRsH-54" value="&amp;lt;&amp;lt;extends&amp;gt;&amp;gt;" style="text;html=1;align=center;verticalAlign=middle;resizable=0;points=[];autosize=1;strokeColor=none;fillColor=none;" vertex="1" parent="WIyWlLk6GJQsqaUBKTNV-1">
          <mxGeometry x="670" y="618" width="90" height="30" as="geometry" />
        </mxCell>
        <mxCell id="dinOEAFU-VS2GNhogRsH-55" value="&amp;lt;&amp;lt;extends&amp;gt;&amp;gt;" style="text;html=1;align=center;verticalAlign=middle;resizable=0;points=[];autosize=1;strokeColor=none;fillColor=none;" vertex="1" parent="WIyWlLk6GJQsqaUBKTNV-1">
          <mxGeometry x="670" y="657" width="90" height="30" as="geometry" />
        </mxCell>
        <mxCell id="Kb5Un5DhfbVSZIk7FcRY-8" value="Add Graph" style="ellipse;whiteSpace=wrap;html=1;" vertex="1" parent="WIyWlLk6GJQsqaUBKTNV-1">
          <mxGeometry x="836" y="729" width="96" height="40" as="geometry" />
        </mxCell>
        <mxCell id="Kb5Un5DhfbVSZIk7FcRY-9" value="Delete Graph" style="ellipse;whiteSpace=wrap;html=1;" vertex="1" parent="WIyWlLk6GJQsqaUBKTNV-1">
          <mxGeometry x="836" y="783" width="96" height="40" as="geometry" />
        </mxCell>
        <mxCell id="Kb5Un5DhfbVSZIk7FcRY-10" value="Rename Graph" style="ellipse;whiteSpace=wrap;html=1;" vertex="1" parent="WIyWlLk6GJQsqaUBKTNV-1">
          <mxGeometry x="836" y="829" width="96" height="40" as="geometry" />
        </mxCell>
        <mxCell id="Kb5Un5DhfbVSZIk7FcRY-18" style="rounded=0;orthogonalLoop=1;jettySize=auto;html=1;endArrow=none;endFill=0;" edge="1" parent="WIyWlLk6GJQsqaUBKTNV-1" source="Kb5Un5DhfbVSZIk7FcRY-11" target="dinOEAFU-VS2GNhogRsH-2">
          <mxGeometry relative="1" as="geometry" />
        </mxCell>
        <mxCell id="Kb5Un5DhfbVSZIk7FcRY-11" value="Graph Manipulation" style="ellipse;whiteSpace=wrap;html=1;" vertex="1" parent="WIyWlLk6GJQsqaUBKTNV-1">
          <mxGeometry x="543" y="783" width="116" height="40" as="geometry" />
        </mxCell>
        <mxCell id="Kb5Un5DhfbVSZIk7FcRY-12" style="edgeStyle=orthogonalEdgeStyle;rounded=0;orthogonalLoop=1;jettySize=auto;html=1;entryX=1;entryY=0.5;entryDx=0;entryDy=0;dashed=1;" edge="1" parent="WIyWlLk6GJQsqaUBKTNV-1" source="Kb5Un5DhfbVSZIk7FcRY-8">
          <mxGeometry relative="1" as="geometry">
            <Array as="points">
              <mxPoint x="709" y="753" />
              <mxPoint x="709" y="803" />
            </Array>
            <mxPoint x="819" y="753" as="sourcePoint" />
            <mxPoint x="659" y="803" as="targetPoint" />
          </mxGeometry>
        </mxCell>
        <mxCell id="Kb5Un5DhfbVSZIk7FcRY-13" style="rounded=0;orthogonalLoop=1;jettySize=auto;html=1;entryX=1;entryY=0.5;entryDx=0;entryDy=0;dashed=1;" edge="1" parent="WIyWlLk6GJQsqaUBKTNV-1" source="Kb5Un5DhfbVSZIk7FcRY-9">
          <mxGeometry relative="1" as="geometry">
            <mxPoint x="819" y="803" as="sourcePoint" />
            <mxPoint x="659" y="803" as="targetPoint" />
          </mxGeometry>
        </mxCell>
        <mxCell id="Kb5Un5DhfbVSZIk7FcRY-14" style="edgeStyle=orthogonalEdgeStyle;rounded=0;orthogonalLoop=1;jettySize=auto;html=1;entryX=1;entryY=0.5;entryDx=0;entryDy=0;dashed=1;" edge="1" parent="WIyWlLk6GJQsqaUBKTNV-1" source="Kb5Un5DhfbVSZIk7FcRY-10">
          <mxGeometry relative="1" as="geometry">
            <Array as="points">
              <mxPoint x="709" y="852" />
              <mxPoint x="709" y="803" />
            </Array>
            <mxPoint x="819" y="852" as="sourcePoint" />
            <mxPoint x="659" y="803" as="targetPoint" />
          </mxGeometry>
        </mxCell>
        <mxCell id="Kb5Un5DhfbVSZIk7FcRY-15" value="&amp;lt;&amp;lt;extends&amp;gt;&amp;gt;" style="text;html=1;align=center;verticalAlign=middle;resizable=0;points=[];autosize=1;strokeColor=none;fillColor=none;" vertex="1" parent="WIyWlLk6GJQsqaUBKTNV-1">
          <mxGeometry x="704" y="728" width="90" height="30" as="geometry" />
        </mxCell>
        <mxCell id="Kb5Un5DhfbVSZIk7FcRY-16" value="&amp;lt;&amp;lt;extends&amp;gt;&amp;gt;" style="text;html=1;align=center;verticalAlign=middle;resizable=0;points=[];autosize=1;strokeColor=none;fillColor=none;" vertex="1" parent="WIyWlLk6GJQsqaUBKTNV-1">
          <mxGeometry x="704" y="780" width="90" height="30" as="geometry" />
        </mxCell>
        <mxCell id="Kb5Un5DhfbVSZIk7FcRY-17" value="&amp;lt;&amp;lt;extends&amp;gt;&amp;gt;" style="text;html=1;align=center;verticalAlign=middle;resizable=0;points=[];autosize=1;strokeColor=none;fillColor=none;" vertex="1" parent="WIyWlLk6GJQsqaUBKTNV-1">
          <mxGeometry x="703" y="829" width="90" height="30" as="geometry" />
        </mxCell>
        <mxCell id="Kb5Un5DhfbVSZIk7FcRY-19" value="Image Handling" style="ellipse;whiteSpace=wrap;html=1;" vertex="1" parent="WIyWlLk6GJQsqaUBKTNV-1">
          <mxGeometry x="549" y="910" width="90" height="40" as="geometry" />
        </mxCell>
        <mxCell id="Kb5Un5DhfbVSZIk7FcRY-20" style="edgeStyle=orthogonalEdgeStyle;rounded=0;orthogonalLoop=1;jettySize=auto;html=1;entryX=1;entryY=0.5;entryDx=0;entryDy=0;dashed=1;exitX=0;exitY=0.5;exitDx=0;exitDy=0;" edge="1" parent="WIyWlLk6GJQsqaUBKTNV-1" source="Kb5Un5DhfbVSZIk7FcRY-21" target="Kb5Un5DhfbVSZIk7FcRY-19">
          <mxGeometry relative="1" as="geometry">
            <Array as="points">
              <mxPoint x="669" y="910" />
              <mxPoint x="669" y="930" />
            </Array>
          </mxGeometry>
        </mxCell>
        <mxCell id="Kb5Un5DhfbVSZIk7FcRY-21" value="Import Image" style="ellipse;whiteSpace=wrap;html=1;" vertex="1" parent="WIyWlLk6GJQsqaUBKTNV-1">
          <mxGeometry x="779" y="890" width="70" height="40" as="geometry" />
        </mxCell>
        <mxCell id="Kb5Un5DhfbVSZIk7FcRY-22" style="edgeStyle=orthogonalEdgeStyle;rounded=0;orthogonalLoop=1;jettySize=auto;html=1;entryX=1;entryY=0.5;entryDx=0;entryDy=0;dashed=1;" edge="1" parent="WIyWlLk6GJQsqaUBKTNV-1" source="Kb5Un5DhfbVSZIk7FcRY-25" target="Kb5Un5DhfbVSZIk7FcRY-19">
          <mxGeometry relative="1" as="geometry">
            <Array as="points">
              <mxPoint x="669" y="950" />
              <mxPoint x="669" y="930" />
            </Array>
            <mxPoint x="780" y="950" as="sourcePoint" />
          </mxGeometry>
        </mxCell>
        <mxCell id="Kb5Un5DhfbVSZIk7FcRY-23" value="&amp;lt;&amp;lt;extends&amp;gt;&amp;gt;" style="text;html=1;align=center;verticalAlign=middle;resizable=0;points=[];autosize=1;strokeColor=none;fillColor=none;" vertex="1" parent="WIyWlLk6GJQsqaUBKTNV-1">
          <mxGeometry x="669" y="888" width="90" height="30" as="geometry" />
        </mxCell>
        <mxCell id="Kb5Un5DhfbVSZIk7FcRY-24" value="&amp;lt;&amp;lt;extends&amp;gt;&amp;gt;" style="text;html=1;align=center;verticalAlign=middle;resizable=0;points=[];autosize=1;strokeColor=none;fillColor=none;" vertex="1" parent="WIyWlLk6GJQsqaUBKTNV-1">
          <mxGeometry x="669" y="927" width="90" height="30" as="geometry" />
        </mxCell>
        <mxCell id="Kb5Un5DhfbVSZIk7FcRY-25" value="Export Image" style="ellipse;whiteSpace=wrap;html=1;" vertex="1" parent="WIyWlLk6GJQsqaUBKTNV-1">
          <mxGeometry x="782" y="940" width="70" height="40" as="geometry" />
        </mxCell>
        <mxCell id="Kb5Un5DhfbVSZIk7FcRY-26" value="" style="endArrow=none;html=1;rounded=0;" edge="1" parent="WIyWlLk6GJQsqaUBKTNV-1" source="Kb5Un5DhfbVSZIk7FcRY-19" target="dinOEAFU-VS2GNhogRsH-2">
          <mxGeometry width="50" height="50" relative="1" as="geometry">
            <mxPoint x="820" y="730" as="sourcePoint" />
            <mxPoint x="870" y="680" as="targetPoint" />
          </mxGeometry>
        </mxCell>
      </root>
    </mxGraphModel>
  </diagram>
</mxfile>
